<svg class="canvas" viewBox="0 0 1920 1080" preserveAspectRatio="xMaxYMid slice" xmlns="http://www.w3.org/2000/svg" version="1.1" xmlns:xlink="http://www.w3.org/1999/xlink" xmlns:svgjs="http://svgjs.dev/svgjs">
    <rect width="1920" height="1080" fill="#ffffff"></rect>
    <defs>
        <linearGradient x1="0.5" y1="0" x2="0" y2="1" id="SvgjsLinearGradient1035">
            <stop stop-color="#ffe6ee" offset="0"></stop>
            <stop stop-color="#ffccdd" offset="0.1"></stop>
        </linearGradient>
        <linearGradient x1="0.5" y1="0" x2="0" y2="1" id="SvgjsLinearGradient1036">
            <stop stop-color="#ffe6e6" offset="0"></stop>
            <stop stop-color="#ffcccc" offset="0.22857142857142856"></stop>
        </linearGradient>
        <linearGradient x1="0.5" y1="0" x2="0" y2="1" id="SvgjsLinearGradient1037">
            <stop stop-color=" #ffe6f0" offset="0"></stop>
            <stop stop-color="#ffcce0" offset="0.3571428571428571"></stop>
        </linearGradient>
        <linearGradient x1="0.5" y1="0" x2="0" y2="1" id="SvgjsLinearGradient1038">
            <stop stop-color="#ffe6e6" offset="0"></stop>
            <stop stop-color=" #ffcccc" offset="0.48571428571428565"></stop>
        </linearGradient>
        <linearGradient x1="0.5" y1="0" x2="0" y2="1" id="SvgjsLinearGradient1039">
            <stop stop-color="#ffb380" offset="0"></stop>
            <stop stop-color="#ffa380" offset="0.6142857142857142"></stop>
        </linearGradient>
        <linearGradient x1="0.5" y1="0" x2="0" y2="1" id="SvgjsLinearGradient1040">
            <stop stop-color="#ffa366" offset="0"></stop>
            <stop stop-color="#ff944d" offset="0.7428571428571429"></stop>
        </linearGradient>
        <linearGradient x1="0.5" y1="0" x2="0" y2="1" id="SvgjsLinearGradient1041">
            <stop stop-color="#ff8566" offset="0"></stop>
            <stop stop-color="#ff704d" offset="0.8714285714285713"></stop>
        </linearGradient>
    </defs>
    <path d="M0,-564.632260265892C62.27525444735735,-547.1526762692753,250.4057968717131,-496.84063214593255,373.6515266841441,-459.7547562861914C496.89725649657504,-422.6688804264503,611.7376215964708,-380.4069923734366,739.4743788745859,-342.1170051074454C867.211136152701,-303.82701784145416,1010.8491717284808,-258.10764966589863,1140.0720703528345,-230.01483269024413C1269.2949689771883,-201.92201571458963,1384.8237823461811,-207.79053199091038,1514.8117706207088,-173.56010325351835C1644.7997588952364,-139.32967451612632,1852.468628436785,-49.45356743049639,1920,-24.632260265892004L 1920 1080 L 0 1080 Z" fill="url(&quot;#SvgjsLinearGradient1035&quot;)"></path>
    <path d="M0,-419.26582240898284C52.22941106132808,-403.59979403612385,202.3958006778933,-361.6661149367396,313.3764663679685,-325.2696521718291C424.35713205804365,-288.8731894069186,554.0172659723069,-227.39184082648615,665.8839941404509,-200.88704581951976C777.750722308595,-174.38225081255337,880.1893843961816,-190.61766507112657,984.5768353768327,-166.24088213003068C1088.9642863574838,-141.8640991889348,1186.5899589457435,-91.08626214487226,1292.2087000243573,-54.62634817294452C1397.827441102971,-18.16643420101677,1513.657398519241,20.910895026589802,1618.2892818485147,52.5186017015358C1722.9211651777885,84.1263083764818,1869.7148803080859,121.26967684753218,1920,135.01989187673146L 1920 1080 L 0 1080 Z" fill="url(&quot;#SvgjsLinearGradient1036&quot;)"></path>
    <path d="M0,-269.84924692358726C57.40842046222381,-246.4929230293182,216.7055110875081,-173.1288635200232,344.45052277334287,-129.7113035579729C472.1955344591776,-86.29374359592262,632.5026229968845,-36.8396400531244,766.4700701150085,-9.343887151285472C900.4375172331326,18.15186575055346,1017.2905420083239,2.7686805115604614,1148.255205482087,35.26321385306068C1279.21986895585,67.75774719456089,1423.6339185379347,141.71348493191903,1552.2580509575869,185.6233128977158C1680.882183377239,229.53314086351259,1858.7096751595977,279.87237018948707,1920,298.72218164784135L 1920 1080 L 0 1080 Z" fill="url(&quot;#SvgjsLinearGradient1037&quot;)"></path>
    <path d="M0,-130.18599155808616C39.168945406502,-115.31483574763912,140.58196277420933,-73.47420695782364,235.013672439012,-40.95905669540392C329.44538210381467,-8.443906432984207,469.41647592826376,42.665905013552745,566.5902579888159,64.90491001643213C663.7640400493681,87.1439150193115,725.6820088601029,73.70953057249872,818.0563648023248,92.47497332187233C910.4307207445466,111.24041607124593,1025.2302053579763,145.14129448766286,1120.8363936421472,177.49756651267376C1216.442581926318,209.85383853768465,1307.320631400026,250.24377558253428,1391.6934945073504,286.6126054719377C1476.0663576146746,322.9814353613411,1539.0224880373182,368.03412154457425,1627.0735722860932,395.7105458490941C1715.124656534868,423.38697015361396,1871.1789287143488,443.1777170573963,1920,452.67115129905676L 1920 1080 L 0 1080 Z" fill="url(&quot;#SvgjsLinearGradient1038&quot;)"></path>
    <path d="M0,14.855994069782199C58.32754640119119,39.40372586432528,237.64223419396382,121.73913713469932,349.96527840714714,162.1423848370407C462.28832262033046,202.5456325393821,579.8420326579156,237.76873672323822,673.9382652790999,257.2754802838306C768.0344979002842,276.78222384442296,810.6412501381643,244.9037437427188,914.542674134253,279.1828462005949C1018.4440981303418,313.461948658471,1191.3212799521475,422.6121238083864,1297.3468092556325,462.95009503108713C1403.3723385591175,503.28806625378786,1446.9203181644352,496.36921417320735,1550.695849955163,521.2106735367994C1654.471381745891,546.0521329003915,1858.4493083258606,596.8674882666661,1920,611.9988512126395L 1920 1080 L 0 1080 Z" fill="url(&quot;#SvgjsLinearGradient1039&quot;)"></path>
    <path d="M0,106.07005511664525C77.50359776040479,134.16136200353952,301.6061389093562,224.7226771613634,465.02158656242875,274.6178964380108C628.4370342155013,324.5131157146582,818.4423143043842,363.5523415812272,980.4926859184351,405.4413707765297C1142.5430575324858,447.3303999718322,1280.7392638998062,473.9425289817112,1437.3238162467337,525.9520716098257C1593.9083685936612,577.9616142379401,1839.5539693744556,685.5742007226515,1920,717.4986265452167L 1920 1080 L 0 1080 Z" fill="url(&quot;#SvgjsLinearGradient1040&quot;)"></path>
    <path d="M0,207.42732098300883C52.01770557516979,228.43515045143974,212.71515770394745,295.113916579868,312.10623345101874,333.47429779359425C411.49730919809,371.8346790073205,491.55247500169384,400.1917341799152,596.3464544824278,437.58960826536645C701.1404339631617,474.9874823508177,822.5553949311818,525.5329694082141,940.8701103354226,557.8615423063015C1059.1848257396634,590.190115204389,1196.7832727214106,610.0053204698721,1306.2347469078727,631.5610456538914C1415.6862210943348,653.1167708379106,1495.2847466055075,653.5991332365163,1597.5789554541955,687.1958934104168C1699.8731643028834,720.7926535843173,1866.2631592423659,808.8173211494816,1920,833.1416066972946L 1920 1080 L 0 1080 Z" fill="url(&quot;#SvgjsLinearGradient1041&quot;)"></path>
</svg>